<svg width="48" height="48" viewBox="0 0 48 48" fill="none" xmlns="http://www.w3.org/2000/svg">
<rect width="48" height="48" rx="6" fill="#FFF4E6"/>
<path fill-rule="evenodd" clip-rule="evenodd" d="M26.6152 13.595C26.9164 13.7629 27.0643 14.1146 26.9736 14.4474L24.9819 21.75H32.25C32.5486 21.75 32.8188 21.9272 32.9378 22.2011C33.0569 22.475 33.0021 22.7934 32.7983 23.0118L22.2983 34.2618C22.063 34.5139 21.686 34.573 21.3848 34.4051C21.0835 34.2372 20.9357 33.8854 21.0264 33.5527L23.018 26.25H15.75C15.4513 26.25 15.1812 26.0728 15.0621 25.7989C14.9431 25.525 14.9979 25.2066 15.2017 24.9883L25.7017 13.7383C25.937 13.4862 26.314 13.427 26.6152 13.595Z" fill="#262626"/>
</svg>
