<svg width="21" height="20" viewBox="0 0 21 20" fill="none" xmlns="http://www.w3.org/2000/svg">
<g id="Icon" clip-path="url(#clip0_0_899)">
<path id="Vector" d="M6.62517 18.125C14.1705 18.125 18.2986 11.8723 18.2986 6.45155C18.2986 6.27577 18.2947 6.09608 18.2869 5.9203C19.0899 5.33955 19.783 4.62021 20.3334 3.79608C19.5855 4.12883 18.7914 4.34615 17.9783 4.44061C18.8344 3.92742 19.4755 3.12123 19.7826 2.17147C18.9772 2.6488 18.0964 2.98551 17.1779 3.16718C16.5591 2.50963 15.7409 2.07426 14.8498 1.92838C13.9587 1.78249 13.0444 1.93421 12.2482 2.36008C11.4519 2.78595 10.8182 3.46225 10.4449 4.28443C10.0716 5.1066 9.97956 6.02885 10.183 6.90858C8.55212 6.82674 6.95665 6.40309 5.50003 5.66508C4.0434 4.92708 2.75812 3.8912 1.72751 2.6246C1.20371 3.5277 1.04342 4.59637 1.27923 5.61341C1.51504 6.63045 2.12926 7.51954 2.99705 8.09999C2.34556 8.0793 1.70835 7.9039 1.13806 7.58827V7.63905C1.13748 8.58679 1.46512 9.50549 2.0653 10.239C2.66548 10.9725 3.50114 11.4755 4.43025 11.6625C3.82675 11.8276 3.19336 11.8517 2.57908 11.7328C2.84125 12.5479 3.35135 13.2607 4.03818 13.7719C4.72501 14.2831 5.55431 14.5672 6.41033 14.5844C4.95706 15.7259 3.16185 16.3451 1.31384 16.3422C0.986113 16.3417 0.658707 16.3216 0.333374 16.282C2.21075 17.4865 4.39465 18.1262 6.62517 18.125Z" fill="#333333"/>
</g>
<defs>
<clipPath id="clip0_0_899">
<rect width="20" height="20" fill="white" transform="translate(0.333374)"/>
</clipPath>
</defs>
</svg>
